<?xml version="1.0" standalone="no"?><!DOCTYPE svg PUBLIC "-//W3C//DTD SVG 1.1//EN" "http://www.w3.org/Graphics/SVG/1.1/DTD/svg11.dtd"><svg t="1572196684304" class="icon" viewBox="0 0 1213 1024" version="1.1" xmlns="http://www.w3.org/2000/svg" p-id="42733" xmlns:xlink="http://www.w3.org/1999/xlink" width="37.90625" height="32"><defs><style type="text/css"></style></defs><path d="M589.959273 258.057786A294.922979 294.922979 0 1 0 884.882252 552.979793a294.922979 294.922979 0 0 0-294.922979-294.922979z m167.737706 438.698017a221.191991 221.191991 0 1 1-23.962669-311.881145 221.191991 221.191991 0 0 1 23.962669 312.249547z" p-id="42734"></path><path d="M589.959273 405.51879a147.461975 147.461975 0 0 0-147.461975 147.461975 18.432747 18.432747 0 0 0 36.865494 0 110.596482 110.596482 0 0 1 110.596481-110.596481 18.432747 18.432747 0 0 0 0-36.865494z" p-id="42735"></path><path d="M1087.273094 221.192292L927.646069 194.647893 877.140945 69.306574a110.596482 110.596482 0 0 0-102.855175-69.306273H405.631804a110.596482 110.596482 0 0 0-102.854203 69.675648L252.271505 196.122474l-159.627025 25.068846A110.596482 110.596482 0 0 0 0.112343 331.788774v552.980464a110.596482 110.596482 0 0 0 110.596482 110.596482h958.500896a110.596482 110.596482 0 0 0 110.59551-110.596482V331.788774a110.596482 110.596482 0 0 0-92.532137-110.596482z m18.801149 663.576946a36.865494 36.865494 0 0 1-36.864522 36.865494H110.708825a36.865494 36.865494 0 0 1-36.865494-36.865494V331.788774a36.865494 36.865494 0 0 1 30.96717-36.865494l200.547859-33.54793L371.346097 96.219376a36.865494 36.865494 0 0 1 34.284735-22.488087h368.654938a36.865494 36.865494 0 0 1 34.283763 23.225864l65.989681 165.156946 200.547859 32.810153a36.865494 36.865494 0 0 1 30.966198 36.865494z" p-id="42736"></path></svg>