<?xml version="1.0" standalone="no"?><!DOCTYPE svg PUBLIC "-//W3C//DTD SVG 1.1//EN" "http://www.w3.org/Graphics/SVG/1.1/DTD/svg11.dtd"><svg t="1572198372000" class="icon" viewBox="0 0 1024 1024" version="1.1" xmlns="http://www.w3.org/2000/svg" p-id="70635" xmlns:xlink="http://www.w3.org/1999/xlink" width="32" height="32"><defs><style type="text/css"></style></defs><path d="M860.16 262.656h-75.264l-26.112-78.336c-14.336-43.008-54.272-71.68-99.328-71.68h-294.4c-45.056 0-84.992 28.672-99.328 71.68l-26.112 78.336h-75.264c-57.344 0-104.448 46.592-104.448 104.448v447.488c0 57.344 46.592 104.448 104.448 104.448H860.16c57.856 0 104.448-46.592 104.448-104.448v-447.488c0-57.344-46.592-104.448-104.448-104.448z m-740.352 104.448c0-24.576 19.968-44.544 44.544-44.544h78.848c24.064 0 45.056-15.36 52.224-37.376l27.136-81.92c6.144-18.432 23.04-30.72 42.496-30.72h293.888c19.456 0 36.352 12.288 42.496 30.72l27.136 81.92c7.68 22.016 28.672 37.376 52.224 37.376h79.36c24.576 0 44.544 19.968 44.544 44.544v447.488c0 24.576-19.968 44.544-44.544 44.544h-695.808c-24.576 0-44.544-19.968-44.544-44.544v-447.488z" fill="" p-id="70636"></path><path d="M512 769.536c112.64 0 203.776-92.16 203.776-204.288s-91.136-203.776-203.776-203.776c-112.128 0-203.776 92.16-203.776 204.288s91.136 203.776 203.776 203.776z m0-348.16c79.872 0 144.384 64.512 143.872 143.872 0 79.36-64.512 143.872-143.872 143.872s-143.872-64.512-143.872-143.872 64.512-143.872 143.872-143.872z" fill="" p-id="70637"></path></svg>