<?xml version="1.0" standalone="no"?><!DOCTYPE svg PUBLIC "-//W3C//DTD SVG 1.1//EN" "http://www.w3.org/Graphics/SVG/1.1/DTD/svg11.dtd"><svg t="1571064329937" class="icon" viewBox="0 0 1024 1024" version="1.1" xmlns="http://www.w3.org/2000/svg" p-id="39189" xmlns:xlink="http://www.w3.org/1999/xlink" width="200" height="200"><defs><style type="text/css"></style></defs><path d="M84.114286 178.285714a32 32 0 0 1 0-64h2.304a141.714286 141.714286 0 0 1 140.544 123.538286l41.435428 320.731429a77.714286 77.714286 0 0 0 77.092572 67.730285h308.297143a77.714286 77.714286 0 0 0 76.726857-65.426285l40.411428-252.16a77.714286 77.714286 0 0 0-76.763428-89.965715H329.142857A32 32 0 1 1 329.142857 154.697143h365.019429a141.714286 141.714286 0 0 1 139.922285 164.096l-40.374857 252.16a141.714286 141.714286 0 0 1-139.922285 119.296h-308.297143a141.714286 141.714286 0 0 1-140.544-123.538286L163.474286 246.016A77.714286 77.714286 0 0 0 86.418286 178.322286H84.114286z" p-id="39190"></path><path d="M374.857143 310.857143m32 0l0 0q32 0 32 32l0 155.428571q0 32-32 32l0 0q-32 0-32-32l0-155.428571q0-32 32-32Z" p-id="39191"></path><path d="M557.714286 310.857143m32 0l0 0q32 0 32 32l0 155.428571q0 32-32 32l0 0q-32 0-32-32l0-155.428571q0-32 32-32Z" p-id="39192"></path><path d="M292.571429 768m54.857142 0l0 0q54.857143 0 54.857143 54.857143l0 0q0 54.857143-54.857143 54.857143l0 0q-54.857143 0-54.857142-54.857143l0 0q0-54.857143 54.857142-54.857143Z" p-id="39193"></path><path d="M585.142857 768m54.857143 0l0 0q54.857143 0 54.857143 54.857143l0 0q0 54.857143-54.857143 54.857143l0 0q-54.857143 0-54.857143-54.857143l0 0q0-54.857143 54.857143-54.857143Z" p-id="39194"></path></svg>