<?xml version="1.0" standalone="no"?><!DOCTYPE svg PUBLIC "-//W3C//DTD SVG 1.1//EN" "http://www.w3.org/Graphics/SVG/1.1/DTD/svg11.dtd"><svg t="1572196892947" class="icon" viewBox="0 0 1028 1024" version="1.1" xmlns="http://www.w3.org/2000/svg" p-id="51972" xmlns:xlink="http://www.w3.org/1999/xlink" width="32.125" height="32"><defs><style type="text/css"></style></defs><path d="M344 773.12q18.24 0 34.56 6.72t28.32 18.72 19.2 28.32 7.2 34.56-7.2 34.56-19.2 28.32-28.32 19.2-34.56 7.2q-19.2 0-35.52-7.2t-28.32-19.2-19.2-28.32-7.2-34.56 7.2-34.56 19.2-28.32 28.32-18.72 35.52-6.72zM743.36 775.04q18.24 0 35.04 6.72t28.8 18.72 19.2 28.32 7.2 34.56-7.2 34.56-19.2 28.32-28.8 19.2-35.04 7.2-34.56-7.2-28.32-19.2-19.2-28.32-7.2-34.56 7.2-34.56 19.2-28.32 28.32-18.72 34.56-6.72zM904.64 229.76q26.88 0 41.76 7.2t21.12 17.76 5.76 22.56-3.36 20.64-12.48 35.52-20.64 59.04-22.08 63.84-17.76 49.92q-12.48 38.4-31.2 53.28t-46.56 14.88l-33.6 0-61.44 0-80.64 0-90.24 0-238.08 0 13.44 86.4 484.8 0q46.08 0 46.08 39.36 0 19.2-9.12 33.6t-36 13.44l-46.08 0-88.32 0-111.36 0-112.32 0-93.12 0-51.84 0q-19.2 0-32.16-8.64t-21.6-22.56-13.92-30.24-8.16-30.72q-0.96-5.76-5.28-27.84t-10.56-55.2-13.92-73.92-15.36-82.08q-18.24-96.96-41.28-216l-72 0q-14.4 0-24-7.2t-15.84-17.28-8.64-21.6-2.4-21.12q0-19.2 12.96-31.68t35.04-11.52l96.96 0q19.2 0 30.72 5.76t18.24 14.4 9.6 17.76 4.8 15.84q1.92 7.68 3.84 21.6t3.84 28.32q2.88 17.28 5.76 36.48l656.64 0zM869.12 315.2l-600.96-1.92 33.6 173.76 502.08 0.96z" fill="#333333" p-id="51973"></path></svg>