<?xml version="1.0" standalone="no"?><!DOCTYPE svg PUBLIC "-//W3C//DTD SVG 1.1//EN" "http://www.w3.org/Graphics/SVG/1.1/DTD/svg11.dtd"><svg t="1571151401981" class="icon" viewBox="0 0 2555 1024" version="1.1" xmlns="http://www.w3.org/2000/svg" p-id="2118" width="159.6875" height="64" xmlns:xlink="http://www.w3.org/1999/xlink"><defs><style type="text/css"></style></defs><path d="M2440.941627 557.56555c-23.517703-26.457416-23.517703-65.653589 0-92.111005 42.135885-48.015311 66.633493-111.709091 62.713875-181.282296-7.839234-128.367464-114.648804-231.257416-243.016268-235.177034-73.492823-1.959809-140.126316 27.437321-187.161722 76.432536-45.075598 47.035407-109.749282 72.512919-175.402871 72.512919H644.777033c-62.713876 0-122.488038-26.457416-165.603827-71.533014-42.135885-44.095694-99.950239-72.512919-164.623924-76.432536C169.523445 40.176077 48.995215 155.804785 48.995215 298.870813c0 64.673684 24.497608 123.467943 64.673685 167.563637 22.537799 25.477512 23.517703 63.69378 0 88.191387-43.115789 48.015311-68.593301 112.688995-64.673685 183.242106 7.839234 128.367464 114.648804 231.257416 243.016268 234.197129 73.492823 1.959809 139.146411-28.417225 186.181818-77.41244 45.075598-47.035407 109.749282-72.512919 175.402871-72.512919h1273.875598c52.914833 0 102.889952 23.517703 138.166508 63.69378 43.115789 48.995215 103.869856 80.352153 171.483253 85.251674 145.025837 8.819139 265.554067-105.829665 265.554067-248.895693 0.979904-62.713876-22.537799-120.52823-61.733971-164.623924z m-563.444976 212.639235h-9.799043v-8.819139h9.799043v8.819139z m0-28.417225h-9.799043v-19.598086h9.799043v19.598086z m0-39.196172h-9.799043v-19.598087h9.799043v19.598087z m0-39.196173h-9.799043v-19.598086h9.799043v19.598086z m0-39.196172h-9.799043v-19.598086h9.799043v19.598086z m0-39.196172h-9.799043v-19.598086h9.799043v19.598086z m0-39.196172h-9.799043v-19.598087h9.799043v19.598087z m0-39.196173h-9.799043v-19.598086h9.799043v19.598086z m0-39.196172h-9.799043v-19.598086h9.799043v19.598086z m0-39.196172h-9.799043v-19.598086h9.799043v19.598086z m0-39.196172h-9.799043v-19.598087h9.799043v19.598087z m0-39.196173h-9.799043v-19.598086h9.799043v19.598086z m0-39.196172h-9.799043v-19.598086h9.799043v19.598086z m0-39.196172h-9.799043v-19.598086h9.799043v19.598086z m243.016268 240.076555V509.550239l0.979904 0.979905c0 0.979904-0.979904 0.979904-0.979904 0.979904z" fill="#ffffff" p-id="2119" data-spm-anchor-id="a313x.7781069.0.i1" class=""></path></svg>