<?xml version="1.0" standalone="no"?><!DOCTYPE svg PUBLIC "-//W3C//DTD SVG 1.1//EN" "http://www.w3.org/Graphics/SVG/1.1/DTD/svg11.dtd"><svg t="1572196378907" class="icon" viewBox="0 0 1024 1024" version="1.1" xmlns="http://www.w3.org/2000/svg" p-id="31055" xmlns:xlink="http://www.w3.org/1999/xlink" width="32" height="32"><defs><style type="text/css"></style></defs><path d="M675.9 266.7c-1.3 43.1-19 83.4-49.7 113.6-30.8 30.3-71.3 46.9-114 46.9-42.8 0-83.2-16.7-114-46.9-30.7-30.2-48.4-70.5-49.7-113.6l-0.2-5.8-53.5-0.1 0.1 6.2c1.3 56.6 23.9 109.9 63.5 150 41 41.5 95.6 64.4 153.6 64.4s112.5-22.9 154-64.4c39.6-40.1 62.2-93.4 63.5-150.1l0.1-6.2-53.5 0.2-0.2 5.8z" p-id="31056"></path><path d="M865.4 213.9c0-65.7-52.8-119.2-117.8-119.2H276.5c-64.9 0-117.8 53.4-117.8 119.2l-39.3 596.2v0.2c0.1 65.6 52.9 119 117.8 119h549.7c64.9 0 117.7-53.4 117.8-119v-0.2l-39.3-596.2zM845 827.7c-3.8 9.1-9.3 17.3-16.2 24.3s-14.9 12.5-23.9 16.4c-9.3 4-19.1 6-29.3 6H248.2c-10.3 0-20.1-2-29.3-6-9.1-3.9-17.1-9.4-24-16.4-7-7.1-12.4-15.2-16.2-24.3-3.8-8.8-5.7-18.4-5.9-28.4l37.7-570.9v-1c0.1-0.7 0.1-1.2 0.1-1.5 0-10.3 2-20.3 5.9-29.7 3.8-9.2 9.3-17.3 16.2-24.3 6.9-7 15-12.5 24-16.4 9.3-4 19.1-6 29.3-6h453l4.3 0.3c8.4 0.7 16.4 2.6 23.8 5.8 9.1 4 17.2 9.5 24 16.4 6.9 6.9 12.4 15.1 16.2 24.2 4 9.5 6 19.5 6 29.7 0 0.8 0 1.5 0.1 2.1l37.5 571.2c-0.1 10.1-2.1 19.7-5.9 28.5z" p-id="31057"></path></svg>